<?xml version="1.0" encoding="UTF-8"?><svg id="Ebene_1" xmlns="http://www.w3.org/2000/svg" viewBox="0 0 1774.02 298.08"><path d="m208.36,236.45h-123.34V71.68h23.54v162.89h99.8v1.88Z"></path><path d="m263.8,228.69c-13.26-6.43-23.77-16.01-31.54-28.72s-11.65-28.01-11.65-45.9,3.88-33.19,11.65-45.9c7.77-12.71,18.28-22.28,31.54-28.72,13.26-6.43,27.89-9.65,43.9-9.65s30.87,3.22,44.14,9.65c13.26,6.44,23.77,16.01,31.54,28.72,7.77,12.71,11.65,28.01,11.65,45.9s-3.88,33.19-11.65,45.9c-7.77,12.71-18.28,22.28-31.54,28.72-13.26,6.44-27.97,9.65-44.14,9.65s-30.64-3.21-43.9-9.65Zm92.51-16.71c9.02-16.32,13.53-35.62,13.53-57.91s-4.51-41.58-13.53-57.91c-9.03-16.32-25.23-24.48-48.61-24.48s-39.35,8.16-48.37,24.48c-9.03,16.32-13.53,35.62-13.53,57.91s4.51,41.59,13.53,57.91c9.02,16.32,25.15,24.48,48.37,24.48s39.58-8.16,48.61-24.48Z"></path><path d="m501.66,210.56l66.61-138.88h2.12l-80.27,166.65h-.47l-80.03-166.65h25.66l66.38,138.88Z"></path><path d="m622.65,153.13v81.44h102.16v1.88h-125.7V71.68h123.34v1.88h-99.8v77.68h83.33v1.88h-83.33Z"></path><path d="m881.57,236.45h-123.34V71.68h23.54v162.89h99.8v1.88Z"></path><path d="m1026.34,71.68h2.59l-65.67,102.86v61.91h-23.54v-60.73l-71.79-104.04h25.89l68.73,100.04,63.79-100.04Z"></path><path d="m1238.18,151.48v-79.8h23.54v164.77h-23.54v-83.09h-104.28v83.09h-23.54V71.68h23.54v79.8h104.28Z"></path><path d="m1450.97,236.45h-25.66l-25.19-52.49h-82.62l-25.19,52.49h-2.12l80.03-166.65h.47l80.27,166.65Zm-92.04-138.88l-40.72,84.5h81.21l-40.49-84.5Z"></path><path d="m1503.22,236.45h-23.54V71.68h23.54v164.77Z"></path><path d="m1661.64,236.45l-60.26-73.21h-36.72v73.21h-23.54V71.68h66.38c12.4,0,23.73.94,34.01,2.82,10.28,1.88,19.26,6.16,26.95,12.83,7.69,6.67,11.53,16.68,11.53,30.01,0,15.54-5.02,26.64-15.06,33.31-10.04,6.67-22.76,10.63-38.13,11.89l61.67,73.91h-26.83Zm-96.98-162.89v87.8h42.84c15.38,0,27.26-3.3,35.66-9.89,8.39-6.59,12.59-17.97,12.59-34.13s-4.04-27.69-12.12-34.13c-8.08-6.43-20.13-9.65-36.13-9.65h-42.84Z"></path></svg>